<?xml version="1.0" standalone="no"?>
<!DOCTYPE svg PUBLIC "-//W3C//DTD SVG 20010904//EN"
 "http://www.w3.org/TR/2001/REC-SVG-20010904/DTD/svg10.dtd">
<svg version="1.0" xmlns="http://www.w3.org/2000/svg"
 width="300.000000pt" height="100.000000pt" viewBox="0 0 300.000000 100.000000"
 preserveAspectRatio="xMidYMid meet">
<metadata>
Created by potrace 1.16, written by Peter Selinger 2001-2019
</metadata>
<g transform="translate(0.000000,100.000000) scale(0.100000,-0.100000)"
fill="#F6DD05" stroke="none">
<path d="M1757 980 c-4 -17 -14 -20 -56 -20 -40 0 -52 -4 -61 -20 -7 -13 -21
-20 -40 -20 -19 0 -33 -7 -40 -20 -10 -18 -21 -20 -140 -20 -119 0 -130 2
-140 20 -9 18 -21 20 -100 20 -79 0 -91 -2 -100 -20 -9 -17 -21 -20 -80 -20
-59 0 -71 -3 -80 -20 -7 -13 -21 -20 -40 -20 -19 0 -33 -7 -40 -20 -7 -12 -21
-20 -38 -20 -19 0 -37 -12 -62 -40 -25 -28 -43 -40 -62 -40 -17 0 -31 -8 -38
-20 -7 -13 -21 -20 -40 -20 -19 0 -33 -7 -40 -20 -8 -16 -21 -20 -60 -20 -39
0 -52 -4 -60 -20 -7 -13 -21 -20 -40 -20 -19 0 -33 -7 -40 -20 -8 -15 -21 -20
-56 -20 -41 0 -50 -5 -94 -50 -34 -33 -50 -57 -50 -74 0 -15 -8 -30 -20 -36
-13 -7 -20 -21 -20 -40 0 -19 -7 -33 -20 -40 -15 -8 -20 -21 -20 -56 0 -41 5
-50 50 -94 l49 -50 222 0 221 0 58 60 c37 38 66 60 80 60 14 0 44 22 81 61 48
50 63 60 86 57 l28 -3 3 -109 c3 -104 4 -109 32 -137 27 -27 33 -29 114 -29
75 0 87 2 96 20 7 13 21 20 40 20 19 0 33 7 40 20 8 16 21 20 60 20 39 0 52 4
60 20 9 18 21 20 98 20 l87 0 35 -40 c31 -36 40 -40 82 -40 37 0 50 -4 58 -20
10 -18 21 -20 120 -20 99 0 110 2 120 20 8 16 21 20 60 20 39 0 52 4 60 20 8
16 21 20 60 20 39 0 52 4 60 20 10 18 21 20 140 20 119 0 130 -2 140 -20 9
-18 21 -20 96 -20 l85 0 89 90 c68 67 90 96 90 116 0 17 6 28 20 31 11 3 20
13 20 23 0 10 -9 20 -20 23 -14 3 -20 14 -20 31 0 37 -168 206 -204 206 -15 0
-30 8 -36 20 -8 16 -21 20 -56 20 -35 0 -50 5 -65 23 l-19 22 -20 -25 -20 -25
-19 23 c-15 17 -30 22 -65 22 -35 0 -48 4 -56 20 -7 12 -21 20 -38 20 -19 0
-37 12 -62 40 -25 28 -43 40 -62 40 -17 0 -31 8 -38 20 -7 13 -21 20 -40 20
-19 0 -33 7 -40 20 -9 18 -21 20 -101 20 -82 0 -91 2 -96 20 -4 16 -14 20 -43
20 -29 0 -39 -4 -43 -20z"/>
</g>
</svg>
