<?xml version="1.0" standalone="no"?>
<!DOCTYPE svg PUBLIC "-//W3C//DTD SVG 20010904//EN"
 "http://www.w3.org/TR/2001/REC-SVG-20010904/DTD/svg10.dtd">
<svg version="1.0" xmlns="http://www.w3.org/2000/svg"
 width="244.000000pt" height="240.000000pt" viewBox="0 0 244.000000 240.000000"
 preserveAspectRatio="xMidYMid meet">
<metadata>
Created by potrace 1.16, written by Peter Selinger 2001-2019
</metadata>
<g transform="translate(0.000000,240.000000) scale(0.100000,-0.100000)"
fill="#D92244" stroke="none">
<path d="M1167 2269 l-48 -49 1 -221 c1 -134 -2 -225 -8 -231 -19 -19 -32 3
-32 52 0 39 -4 52 -20 60 -16 8 -20 21 -20 60 0 39 -4 52 -20 60 -16 8 -20 21
-20 60 0 39 -4 52 -20 60 -13 7 -20 21 -20 40 0 19 -7 33 -19 40 -12 6 -21 23
-23 43 l-3 32 -68 3 c-63 3 -69 1 -97 -27 -35 -35 -39 -75 -10 -91 17 -9 20
-21 20 -80 0 -59 3 -71 20 -80 13 -7 20 -21 20 -40 0 -19 7 -33 20 -40 16 -8
20 -21 20 -60 0 -38 4 -52 19 -59 24 -13 32 -46 16 -68 -12 -15 -29 -1 -173
145 -156 157 -162 162 -202 162 -58 0 -100 -42 -100 -100 0 -39 5 -46 170
-210 127 -127 177 -170 195 -170 14 0 29 -8 35 -20 7 -13 21 -20 40 -20 20 0
31 -6 35 -20 8 -26 29 -25 48 3 l15 22 61 -62 c42 -45 67 -63 85 -63 15 0 30
-8 36 -20 7 -13 21 -20 40 -20 20 0 31 -6 35 -21 10 -29 39 -20 43 14 3 20 -4
35 -22 52 -30 28 -31 34 -13 60 18 23 37 12 37 -22 0 -15 11 -36 25 -49 20
-18 24 -29 19 -56 -9 -55 -12 -58 -45 -58 -22 0 -32 5 -36 20 -4 15 -14 20
-39 20 -23 0 -37 6 -44 20 -7 13 -21 20 -40 20 -19 0 -33 7 -40 20 -7 13 -21
20 -40 20 -19 0 -33 7 -40 20 -7 13 -21 20 -41 20 -22 0 -32 5 -36 20 -4 15
-14 20 -39 20 -23 0 -37 6 -44 20 -7 13 -21 20 -40 20 -19 0 -33 7 -40 20 -7
13 -21 20 -40 20 -19 0 -33 7 -40 20 -7 13 -21 20 -40 20 -19 0 -33 7 -40 20
-7 13 -21 20 -40 20 -19 0 -33 7 -40 20 -7 13 -21 20 -40 20 -19 0 -33 7 -40
20 -7 13 -21 20 -40 20 -19 0 -33 7 -40 20 -10 19 -19 21 -83 18 -72 -3 -72
-3 -75 -33 -2 -16 -13 -38 -25 -47 l-22 -18 22 -17 c12 -10 23 -31 25 -48 3
-26 8 -30 35 -33 20 -2 37 -11 43 -23 7 -12 21 -19 40 -19 19 0 33 -7 40 -20
7 -13 21 -20 40 -20 19 0 33 -7 40 -20 7 -13 21 -20 40 -20 19 0 33 -7 40 -20
7 -13 21 -20 40 -20 19 0 33 -7 40 -20 7 -13 21 -20 40 -20 19 0 33 -7 40 -19
6 -12 23 -21 43 -23 43 -4 44 -32 0 -36 -24 -2 -34 2 -43 17 -10 20 -19 21
-236 21 l-226 0 -39 -40 c-22 -22 -44 -40 -49 -40 -19 0 -10 -38 9 -43 14 -3
21 -15 23 -38 3 -30 7 -34 35 -37 20 -2 37 -11 43 -22 9 -16 24 -20 103 -22
74 -2 92 -6 92 -18 0 -11 -15 -17 -53 -20 -36 -4 -57 -11 -63 -23 -7 -12 -23
-17 -55 -17 -37 0 -51 -6 -75 -29 -26 -26 -29 -36 -29 -91 0 -55 3 -65 29 -91
24 -23 38 -29 75 -29 35 0 48 5 56 20 8 16 21 20 60 20 39 0 52 4 60 20 8 16
21 20 60 20 39 0 52 4 60 20 7 13 21 20 40 20 19 0 33 7 40 20 8 16 21 20 60
20 39 0 52 4 60 20 7 13 21 20 40 20 17 0 30 4 30 9 0 14 142 151 157 151 7 0
13 9 13 20 0 16 -7 20 -35 20 -24 0 -37 6 -45 19 -8 15 -23 21 -63 23 -49 3
-52 5 -55 32 -5 42 13 54 41 28 13 -12 33 -22 45 -22 12 0 26 -9 32 -20 7 -13
21 -20 41 -20 22 0 32 -5 36 -20 4 -15 14 -20 37 -20 19 0 38 -8 49 -20 9 -11
27 -20 40 -20 12 0 30 -9 40 -20 10 -12 29 -20 48 -20 24 0 30 -4 27 -17 -5
-28 -87 -30 -117 -3 -13 11 -33 20 -43 20 -11 0 -28 10 -39 23 l-18 22 -25
-30 c-28 -35 -125 -135 -131 -135 -3 0 -99 -94 -215 -210 -205 -205 -210 -210
-210 -250 0 -59 42 -100 101 -100 36 0 47 5 78 39 23 25 47 40 66 43 25 2 31
8 33 33 3 20 22 47 63 87 41 40 59 65 59 82 0 15 8 30 20 36 13 7 20 21 20 40
0 19 7 33 20 40 13 7 20 21 20 40 0 19 7 33 20 40 13 7 20 21 20 40 0 19 7 33
21 40 15 9 19 18 15 35 -4 14 0 28 10 36 14 11 18 10 30 -6 20 -27 17 -42 -11
-61 -17 -11 -25 -25 -25 -45 0 -18 -7 -32 -20 -39 -13 -7 -20 -21 -20 -40 0
-19 -7 -33 -20 -40 -13 -7 -20 -21 -20 -40 0 -19 -7 -33 -20 -40 -13 -7 -20
-21 -20 -40 0 -19 -7 -33 -20 -40 -13 -7 -20 -21 -20 -40 0 -19 -7 -33 -20
-40 -13 -7 -20 -21 -20 -40 0 -19 -7 -33 -20 -40 -13 -7 -20 -21 -20 -40 0
-19 -7 -33 -20 -40 -19 -10 -20 -19 -18 -103 l3 -92 29 -3 c16 -2 37 -13 47
-25 l17 -22 71 73 c67 67 71 75 71 117 0 34 5 47 20 55 13 7 20 21 20 40 0 19
7 33 20 40 13 7 20 21 20 40 0 19 7 33 20 40 13 7 20 21 20 40 0 19 7 33 21
40 15 9 20 20 19 48 -3 64 -1 72 20 72 11 0 20 -6 21 -12 0 -7 0 -147 -1 -311
l-1 -298 30 -29 c42 -42 100 -42 142 0 l30 30 -2 118 c-2 122 2 142 27 142 9
0 14 -11 14 -35 0 -24 6 -37 20 -45 15 -8 20 -21 20 -56 0 -95 105 -141 171
-75 28 28 29 34 29 115 0 75 -2 87 -20 96 -16 8 -20 21 -20 60 0 39 -4 52 -20
60 -16 8 -20 21 -20 60 0 39 -4 52 -20 60 -13 7 -20 21 -20 40 0 19 -7 33 -20
40 -14 8 -20 21 -20 45 0 19 5 35 11 35 6 0 68 -58 139 -129 94 -95 129 -137
132 -158 2 -24 9 -29 38 -33 31 -4 36 -9 40 -40 4 -31 9 -35 37 -38 20 -2 37
-11 43 -23 19 -34 57 -23 110 31 29 28 50 58 50 70 0 14 -41 62 -121 140 -66
66 -118 124 -114 130 11 18 63 12 75 -10 7 -13 21 -20 40 -20 19 0 33 -7 40
-20 6 -12 21 -20 36 -20 14 0 34 -10 45 -22 l19 -23 18 22 c11 12 32 23 48 25
28 3 29 4 32 71 3 63 1 69 -27 97 -17 18 -40 30 -55 30 -15 0 -30 8 -36 20 -8
16 -21 20 -60 20 -39 0 -52 4 -60 20 -6 12 -21 20 -36 20 -17 0 -40 14 -65 40
-35 35 -46 40 -84 40 -34 0 -47 5 -55 20 -6 11 -17 20 -25 20 -8 0 -15 9 -15
20 0 27 37 27 45 0 6 -19 15 -20 291 -20 l286 0 39 40 c22 22 44 40 49 40 19
0 10 38 -9 43 -14 3 -21 15 -23 38 l-3 34 -72 3 c-60 2 -75 6 -83 22 -10 18
-22 20 -140 20 -120 0 -130 -1 -140 -21 -9 -15 -19 -19 -43 -17 -44 4 -43 32
0 36 20 2 37 11 43 23 8 14 21 19 55 19 33 0 50 6 62 20 10 11 30 20 45 20 17
0 31 7 38 20 8 15 21 20 56 20 95 0 141 105 75 171 -27 26 -36 29 -95 29 -55
0 -67 -3 -76 -20 -8 -16 -21 -20 -60 -20 -39 0 -52 -4 -60 -20 -8 -15 -21 -20
-55 -20 -33 0 -50 -6 -62 -20 -10 -11 -30 -20 -45 -20 -16 0 -28 -4 -28 -9 0
-5 -57 -65 -126 -134 -99 -99 -125 -130 -122 -149 2 -18 10 -24 39 -26 30 -2
37 1 42 17 4 16 13 21 36 21 20 0 34 7 41 21 9 15 19 19 43 17 44 -4 43 -32 0
-36 -20 -2 -37 -11 -43 -23 -8 -13 -21 -19 -45 -19 -28 0 -35 -4 -35 -19 0
-10 9 -21 20 -24 11 -3 20 -12 20 -21 0 -23 -37 -20 -43 4 -4 15 -14 20 -37
20 -23 0 -33 5 -37 19 -4 14 -15 21 -41 23 -26 2 -38 8 -40 21 -2 9 3 17 10
17 7 0 24 14 38 31 34 42 240 249 248 249 4 0 22 18 41 40 22 25 43 40 58 40
34 0 243 210 243 244 0 15 8 30 20 36 29 16 25 56 -9 91 -26 26 -36 29 -91 29
l-61 0 -161 -162 c-146 -148 -161 -161 -173 -144 -18 24 -9 44 37 87 33 32 38
41 38 82 0 36 4 49 20 57 13 7 20 21 20 40 0 19 7 33 20 40 13 7 20 21 20 40
0 19 7 33 20 40 35 19 25 56 -30 110 -27 28 -58 50 -70 50 -30 0 -120 -93
-120 -124 0 -15 -8 -30 -20 -36 -13 -7 -20 -21 -20 -40 0 -19 -7 -33 -20 -40
-13 -7 -20 -21 -20 -40 0 -19 -7 -33 -19 -40 -15 -8 -21 -23 -23 -63 -2 -38
-7 -52 -18 -52 -13 0 -15 33 -18 228 l-2 229 -29 29 c-24 23 -38 29 -73 28
-38 0 -48 -6 -91 -50z m-7 -569 c11 -21 -2 -60 -20 -60 -5 0 -14 9 -20 20 -11
21 2 60 20 60 5 0 14 -9 20 -20z m-240 -40 c11 -21 -2 -60 -20 -60 -5 0 -14 9
-20 20 -11 21 2 60 20 60 5 0 14 -9 20 -20z m640 -40 c0 -13 -7 -20 -20 -20
-13 0 -20 7 -20 20 0 13 7 20 20 20 13 0 20 -7 20 -20z m-360 -40 c0 -13 -7
-20 -20 -20 -13 0 -20 7 -20 20 0 13 7 20 20 20 13 0 20 -7 20 -20z m320 -40
c0 -13 -7 -20 -20 -20 -13 0 -20 7 -20 20 0 13 7 20 20 20 13 0 20 -7 20 -20z
m-40 -79 c12 -24 4 -48 -21 -62 -11 -5 -19 -16 -19 -24 0 -7 -9 -17 -20 -20
-15 -5 -20 -15 -20 -45 0 -56 -8 -70 -40 -70 -39 0 -47 17 -21 44 12 12 21 34
21 48 0 17 7 27 20 31 11 3 20 12 20 20 0 9 9 19 20 22 14 4 20 15 20 34 0 44
22 56 40 22z m-765 -281 c0 -10 -12 -16 -32 -18 -20 -2 -37 -11 -44 -23 -8
-15 -19 -19 -42 -17 -44 4 -43 32 0 36 20 2 37 11 44 23 13 25 74 24 74 -1z
m-200 -80 c0 -18 -52 -27 -67 -12 -17 17 2 33 35 30 20 -2 32 -8 32 -18z m768
-80 c4 -15 14 -20 36 -20 20 0 34 -7 41 -20 7 -13 21 -20 38 -20 15 0 35 -9
45 -20 10 -12 29 -20 48 -20 24 0 30 -4 27 -17 -2 -14 -15 -19 -52 -21 -47 -3
-52 -1 -87 37 -25 28 -45 41 -62 41 -16 0 -31 8 -37 20 -6 11 -17 20 -25 20
-8 0 -15 9 -15 20 0 13 7 20 19 20 10 0 21 -9 24 -20z m-139 -26 c13 -5 16
-22 16 -76 0 -61 2 -71 20 -75 26 -7 27 -43 1 -43 -10 0 -21 9 -24 19 -3 14
-15 21 -38 23 l-34 3 -3 69 c-3 80 11 99 62 80z m456 -134 c0 -13 -7 -20 -20
-20 -13 0 -20 7 -20 20 0 13 7 20 20 20 13 0 20 -7 20 -20z m80 -40 c0 -13 -7
-20 -20 -20 -13 0 -20 7 -20 20 0 13 7 20 20 20 13 0 20 -7 20 -20z m80 -40
c0 -13 -7 -20 -20 -20 -13 0 -20 7 -20 20 0 13 7 20 20 20 13 0 20 -7 20 -20z
m-520 -40 c11 -20 -1 -60 -18 -60 -27 0 -41 47 -20 68 17 17 26 15 38 -8z m40
-120 c11 -21 -2 -60 -20 -60 -5 0 -14 9 -20 20 -11 21 2 60 20 60 5 0 14 -9
20 -20z m40 -120 c11 -21 -2 -60 -20 -60 -5 0 -14 9 -20 20 -11 21 2 60 20 60
5 0 14 -9 20 -20z"/>
</g>
</svg>
